<svg width="200" height="200" viewBox="0 0 96 96" fill="none" xmlns="http://www.w3.org/2000/svg">
  <!-- Upper curve -->
  <path d="M6 38C18 22 38 12 56 12C68 12 80 16 88 26" stroke="#D4AF37" stroke-width="3" stroke-linecap="round" stroke-linejoin="round"></path>

  <!-- Eye outline lower curve -->
  <path d="M6 38C18 52 38 62 56 62C68 62 80 56 88 44" stroke="#D4AF37" stroke-width="3" stroke-linecap="round" stroke-linejoin="round"></path>

  <!-- Iris -->
  <circle cx="56" cy="38" r="10" stroke="#D4AF37" stroke-width="3" fill="none"></circle>

  <!-- Inner pupil -->
  <circle cx="56" cy="38" r="4" fill="#D4AF37"></circle>

  <!-- Egyptian teardrop (Wadjet) -->
  <path d="M56 48C54 54 52 60 52 66" stroke="#D4AF37" stroke-width="3" stroke-linecap="round"></path>

  <!-- Lash flourish -->
  <path d="M64 38C70 40 78 46 82 52" stroke="#D4AF37" stroke-width="3" stroke-linecap="round"></path>

  <!-- Mystical flourish curve -->
  <path d="M20 70C30 70 40 76 46 84" stroke="#D4AF37" stroke-width="3" stroke-linecap="round" stroke-linejoin="round"></path>

  <!-- Underline mark -->
  <path d="M12 70H32" stroke="#D4AF37" stroke-width="3" stroke-linecap="round"></path>
</svg>
